<?xml version="1.0" ?><svg viewBox="0 0 64 64" xmlns="http://www.w3.org/2000/svg"><g id="outline"><path d="M53,4H40V3a1,1,0,0,0-1-1H25a1,1,0,0,0-1,1V4H11a1,1,0,0,0-1,1V61a1,1,0,0,0,1,1H53a1,1,0,0,0,1-1V5A1,1,0,0,0,53,4ZM26,4H38V7a1,1,0,0,1-1,1H27a1,1,0,0,1-1-1Zm1,6H48V56H16V10ZM52,60H12V6H24V7a2.966,2.966,0,0,0,.184,1H15a1,1,0,0,0-1,1V57a1,1,0,0,0,1,1H49a1,1,0,0,0,1-1V9a1,1,0,0,0-1-1H39.816A2.966,2.966,0,0,0,40,7V6H52Z"/><path d="M24,26a6,6,0,0,0,4.648-9.788l1.165-1.631a1,1,0,0,0-1.626-1.162l-1.054,1.474A6,6,0,1,0,24,26Zm0-10a3.95,3.95,0,0,1,1.961.535l-2.089,2.923-1.165-1.165a1,1,0,0,0-1.414,1.414l2,2A1,1,0,0,0,24,22c.027,0,.055,0,.082,0a1,1,0,0,0,.731-.416l2.6-3.639A3.954,3.954,0,0,1,28,20a4,4,0,1,1-4-4Z"/><path d="M24,40a6,6,0,0,0,4.648-9.788l1.165-1.631a1,1,0,0,0-1.626-1.162l-1.054,1.474A6,6,0,1,0,24,40Zm0-10a3.95,3.95,0,0,1,1.961.535l-2.089,2.923-1.165-1.165a1,1,0,0,0-1.414,1.414l2,2A1,1,0,0,0,24,36c.027,0,.055,0,.082,0a1,1,0,0,0,.731-.416l2.6-3.639A3.954,3.954,0,0,1,28,34a4,4,0,1,1-4-4Z"/><path d="M24,54a6,6,0,0,0,4.648-9.788l1.165-1.631a1,1,0,0,0-1.626-1.162l-1.054,1.474A6,6,0,1,0,24,54Zm0-10a3.95,3.95,0,0,1,1.961.535l-2.089,2.923-1.165-1.165a1,1,0,0,0-1.414,1.414l2,2A1,1,0,0,0,24,50c.027,0,.055,0,.082,0a1,1,0,0,0,.731-.416l2.6-3.639A3.954,3.954,0,0,1,28,48a4,4,0,1,1-4-4Z"/><path d="M34,20h9a1,1,0,0,0,0-2H34a1,1,0,0,0,0,2Z"/><path d="M34,24h9a1,1,0,0,0,0-2H34a1,1,0,0,0,0,2Z"/><path d="M34,34h9a1,1,0,0,0,0-2H34a1,1,0,0,0,0,2Z"/><path d="M34,38h9a1,1,0,0,0,0-2H34a1,1,0,0,0,0,2Z"/><path d="M34,48h9a1,1,0,0,0,0-2H34a1,1,0,0,0,0,2Z"/><path d="M34,52h9a1,1,0,0,0,0-2H34a1,1,0,0,0,0,2Z"/></g></svg>