<svg width="169" height="104" viewBox="0 0 169 104" fill="none" xmlns="http://www.w3.org/2000/svg">
<rect width="169" height="104" fill="white"/>
<path d="M7 48.1818L37.5455 63.4545L91 10L45.1818 82.5455L37.5455 94L7 48.1818Z" fill="#93C08C"/>
<rect x="91" y="31" width="9.48387" height="42" fill="#394B36"/>
<path d="M116.742 52.6774H126.226L124.194 62.8387L126.226 73H116.742V52.6774Z" fill="#394B36"/>
<path d="M126.226 52.6774H135.71V73H126.226L128.258 62.8387L126.226 52.6774Z" fill="#394B36"/>
<path d="M138.419 52.6774H143.839L147.903 73H138.419V52.6774Z" fill="#394B36"/>
<path d="M135.71 43.1936L141.129 45.9032L150.613 36.4194L142.484 49.2903L141.129 51.3226L135.71 43.1936Z" fill="#394B36"/>
<path d="M154.677 31H160.097V73H150.613L154.677 31Z" fill="#394B36"/>
<rect x="149.258" y="43.1936" width="10.8387" height="4.06452" fill="#394B36"/>
<path d="M100.484 31H109.968L114.71 52.6774L109.968 73H100.484V68.2581L105.226 52.6774L100.484 35.0645V31Z" fill="#394B36"/>
</svg>
