<svg width="144" height="144" viewBox="0 0 144 144" fill="none" xmlns="http://www.w3.org/2000/svg">
<path d="M55.6426 134.014C55.4277 133.727 55.3984 133.48 55.5547 133.271L56.2383 132.334C56.5117 131.956 56.8438 131.947 57.2344 132.305C57.4688 132.52 57.8301 132.715 58.3184 132.891C58.8066 133.06 59.2949 133.145 59.7832 133.145C60.5254 133.145 61.1504 132.936 61.6582 132.52C62.1725 132.103 62.4297 131.494 62.4297 130.693C62.4297 129.932 62.2669 129.316 61.9414 128.848C61.6159 128.379 61.222 128.145 60.7598 128.145C60.3626 128.145 59.998 128.177 59.666 128.242C59.334 128.301 58.9889 128.486 58.6309 128.799C58.3835 129.014 58.084 129.121 57.7324 129.121H56.668C56.2448 129.121 56.0332 128.91 56.0332 128.486V121.748C56.0332 121.325 56.2448 121.113 56.668 121.113H63.6992C64.1224 121.113 64.334 121.325 64.334 121.748V122.9C64.334 123.324 64.1224 123.535 63.6992 123.535H58.7676V125.928C58.7676 126.188 58.7546 126.449 58.7285 126.709H58.7871C59.1322 126.41 59.5163 126.211 59.9395 126.113C60.3626 126.009 60.8151 125.957 61.2969 125.957C62.4362 125.957 63.3965 126.348 64.1777 127.129C64.9655 127.904 65.3594 129.105 65.3594 130.732C65.3594 132.23 64.8581 133.372 63.8555 134.16C62.8594 134.941 61.6745 135.332 60.3008 135.332C59.1549 135.332 58.1621 135.208 57.3223 134.961C56.4889 134.707 55.929 134.391 55.6426 134.014ZM67 128.057C67 125.42 67.4102 123.548 68.2305 122.441C69.0508 121.335 70.3073 120.781 72 120.781C73.6927 120.781 74.9492 121.335 75.7695 122.441C76.5898 123.548 77 125.42 77 128.057C77 130.693 76.5898 132.565 75.7695 133.672C74.9492 134.779 73.6927 135.332 72 135.332C70.3073 135.332 69.0508 134.779 68.2305 133.672C67.4102 132.565 67 130.693 67 128.057ZM69.8906 128.057C69.8906 129.261 69.9883 130.42 70.1836 131.533C70.3854 132.646 70.9909 133.203 72 133.203C73.0091 133.203 73.6113 132.646 73.8066 131.533C74.0085 130.42 74.1094 129.261 74.1094 128.057C74.1094 126.852 74.0085 125.693 73.8066 124.58C73.6113 123.467 73.0091 122.91 72 122.91C70.9909 122.91 70.3854 123.467 70.1836 124.58C69.9883 125.693 69.8906 126.852 69.8906 128.057ZM78.7188 128.057C78.7188 125.42 79.1289 123.548 79.9492 122.441C80.7695 121.335 82.026 120.781 83.7188 120.781C85.4115 120.781 86.668 121.335 87.4883 122.441C88.3086 123.548 88.7188 125.42 88.7188 128.057C88.7188 130.693 88.3086 132.565 87.4883 133.672C86.668 134.779 85.4115 135.332 83.7188 135.332C82.026 135.332 80.7695 134.779 79.9492 133.672C79.1289 132.565 78.7188 130.693 78.7188 128.057ZM81.6094 128.057C81.6094 129.261 81.707 130.42 81.9023 131.533C82.1042 132.646 82.7096 133.203 83.7188 133.203C84.7279 133.203 85.3301 132.646 85.5254 131.533C85.7272 130.42 85.8281 129.261 85.8281 128.057C85.8281 126.852 85.7272 125.693 85.5254 124.58C85.3301 123.467 84.7279 122.91 83.7188 122.91C82.7096 122.91 82.1042 123.467 81.9023 124.58C81.707 125.693 81.6094 126.852 81.6094 128.057Z" fill="black"/>
<path d="M34 29H110V86H39.5575L34 91.5575V29ZM34 19.5C28.775 19.5 24.5475 23.775 24.5475 29L24.5 114.5L43.5 95.5H110C115.225 95.5 119.5 91.225 119.5 86V29C119.5 23.775 115.225 19.5 110 19.5H34ZM43.5 67H81.5V76.5H43.5V67ZM43.5 52.75H100.5V62.25H43.5V52.75ZM43.5 38.5H100.5V48H43.5V38.5Z" fill="black"/>
</svg>
