<svg width="144" height="144" viewBox="0 0 144 144" fill="currentColor" fill="none" xmlns="http://www.w3.org/2000/svg">
<path d="M44.3535 127.998C44.3535 125.752 44.9232 123.968 46.0625 122.646C47.2018 121.325 48.8457 120.664 50.9941 120.664C52.2311 120.664 53.2793 120.856 54.1387 121.24C54.998 121.624 55.6035 122.181 55.9551 122.91C56.1895 123.392 56.1504 123.717 55.8379 123.887L54.666 124.512C54.2559 124.733 53.9173 124.609 53.6504 124.141C53.4811 123.841 53.1654 123.571 52.7031 123.33C52.2474 123.089 51.7103 122.969 51.0918 122.969C49.7246 122.969 48.7676 123.402 48.2207 124.268C47.6738 125.127 47.4004 126.37 47.4004 127.998C47.4004 129.626 47.6738 130.872 48.2207 131.738C48.7676 132.598 49.7246 133.027 51.0918 133.027C51.8275 133.027 52.446 132.861 52.9473 132.529C53.4551 132.197 53.8066 131.882 54.002 131.582C54.321 131.094 54.6595 130.97 55.0176 131.211L56.1895 131.992C56.5085 132.207 56.541 132.533 56.2871 132.969C55.9095 133.62 55.2617 134.176 54.3438 134.639C53.4258 135.101 52.3092 135.332 50.9941 135.332C48.8783 135.332 47.2409 134.671 46.082 133.35C44.9297 132.028 44.3535 130.244 44.3535 127.998ZM58.2012 127.998C58.2012 125.752 58.7806 123.968 59.9395 122.646C61.0983 121.325 62.752 120.664 64.9004 120.664C67.0488 120.664 68.7025 121.325 69.8613 122.646C71.0202 123.968 71.5996 125.752 71.5996 127.998C71.5996 130.244 71.0202 132.028 69.8613 133.35C68.7025 134.671 67.0488 135.332 64.9004 135.332C62.752 135.332 61.0983 134.671 59.9395 133.35C58.7806 132.028 58.2012 130.244 58.2012 127.998ZM61.248 127.998C61.248 129.626 61.5378 130.872 62.1172 131.738C62.7031 132.598 63.6309 133.027 64.9004 133.027C66.1699 133.027 67.0944 132.598 67.6738 131.738C68.2598 130.872 68.5527 129.626 68.5527 127.998C68.5527 126.37 68.2598 125.127 67.6738 124.268C67.0944 123.402 66.1699 122.969 64.9004 122.969C63.6309 122.969 62.7031 123.402 62.1172 124.268C61.5378 125.127 61.248 126.37 61.248 127.998ZM73.2793 127.998C73.2793 125.752 73.8587 123.968 75.0176 122.646C76.1764 121.325 77.8301 120.664 79.9785 120.664C82.127 120.664 83.7806 121.325 84.9395 122.646C86.0983 123.968 86.6777 125.752 86.6777 127.998C86.6777 130.244 86.0983 132.028 84.9395 133.35C83.7806 134.671 82.127 135.332 79.9785 135.332C77.8301 135.332 76.1764 134.671 75.0176 133.35C73.8587 132.028 73.2793 130.244 73.2793 127.998ZM76.3262 127.998C76.3262 129.626 76.6159 130.872 77.1953 131.738C77.7812 132.598 78.709 133.027 79.9785 133.027C81.248 133.027 82.1725 132.598 82.752 131.738C83.3379 130.872 83.6309 129.626 83.6309 127.998C83.6309 126.37 83.3379 125.127 82.752 124.268C82.1725 123.402 81.248 122.969 79.9785 122.969C78.709 122.969 77.7812 123.402 77.1953 124.268C76.6159 125.127 76.3262 126.37 76.3262 127.998ZM89.7637 135C89.3079 135 89.0801 134.756 89.0801 134.268V121.729C89.0801 121.24 89.3079 120.996 89.7637 120.996H93.416C95.7598 120.996 97.3841 121.377 98.2891 122.139C99.2005 122.9 99.6562 123.981 99.6562 125.381C99.6562 126.781 99.2005 127.861 98.2891 128.623C97.3841 129.385 95.7598 129.766 93.416 129.766H91.9316V134.268C91.9316 134.756 91.7038 135 91.248 135H89.7637ZM91.9316 127.383H93.4062C94.7083 127.383 95.5938 127.23 96.0625 126.924C96.5312 126.611 96.7656 126.097 96.7656 125.381C96.7656 124.665 96.5312 124.154 96.0625 123.848C95.5938 123.535 94.7083 123.379 93.4062 123.379H91.9316V127.383Z" />
<path d="M34 71.75C39.225 71.75 43.5 67.475 43.5 62.25C43.5 57.025 39.225 52.75 34 52.75C28.775 52.75 24.5 57.025 24.5 62.25C24.5 67.475 28.775 71.75 34 71.75ZM39.3675 76.975C37.61 76.69 35.8525 76.5 34 76.5C29.2975 76.5 24.8325 77.4975 20.795 79.255C17.28 80.775 15 84.195 15 88.0425V95.5H36.375V87.8525C36.375 83.91 37.4675 80.205 39.3675 76.975ZM110 71.75C115.225 71.75 119.5 67.475 119.5 62.25C119.5 57.025 115.225 52.75 110 52.75C104.775 52.75 100.5 57.025 100.5 62.25C100.5 67.475 104.775 71.75 110 71.75ZM129 88.0425C129 84.195 126.72 80.775 123.205 79.255C119.168 77.4975 114.703 76.5 110 76.5C108.148 76.5 106.39 76.69 104.633 76.975C106.533 80.205 107.625 83.91 107.625 87.8525V95.5H129V88.0425ZM92.14 74.8375C86.5825 72.3675 79.7425 70.5625 72 70.5625C64.2575 70.5625 57.4175 72.415 51.86 74.8375C46.73 77.1175 43.5 82.2475 43.5 87.8525V95.5H100.5V87.8525C100.5 82.2475 97.27 77.1175 92.14 74.8375ZM53.3325 86C53.76 84.9075 53.95 84.1475 57.655 82.7225C62.2625 80.9175 67.1075 80.0625 72 80.0625C76.8925 80.0625 81.7375 80.9175 86.345 82.7225C90.0025 84.1475 90.1925 84.9075 90.6675 86H53.3325ZM72 48C74.6125 48 76.75 50.1375 76.75 52.75C76.75 55.3625 74.6125 57.5 72 57.5C69.3875 57.5 67.25 55.3625 67.25 52.75C67.25 50.1375 69.3875 48 72 48ZM72 38.5C64.115 38.5 57.75 44.865 57.75 52.75C57.75 60.635 64.115 67 72 67C79.885 67 86.25 60.635 86.25 52.75C86.25 44.865 79.885 38.5 72 38.5Z" />
</svg>
