<svg width="144" height="144" viewBox="0 0 144 144" fill="none" xmlns="http://www.w3.org/2000/svg">
<path d="M83.875 21.875C83.875 29 76.75 50.375 76.75 50.375H67.25C67.25 50.375 60.125 29 60.125 21.875C60.125 15.32 65.445 10 72 10C78.555 10 83.875 15.32 83.875 21.875ZM72 57.5C66.775 57.5 62.5 61.775 62.5 67C62.5 72.225 66.775 76.5 72 76.5C77.225 76.5 81.5 72.225 81.5 67C81.5 61.775 77.225 57.5 72 57.5ZM91.38 34.2725C92.235 30.71 92.9475 27.29 93.2325 24.4875C108.812 32.2775 119.5 48.38 119.5 67C119.5 93.22 98.22 114.5 72 114.5C45.78 114.5 24.5 93.22 24.5 67C24.5 48.38 35.1875 32.2775 50.7675 24.4875C51.1 27.29 51.765 30.7575 52.62 34.2725C41.505 40.9225 34 53.0825 34 67C34 87.995 51.005 105 72 105C92.995 105 110 87.995 110 67C110 53.0825 102.495 40.9225 91.38 34.2725ZM100.5 67C100.5 82.7225 87.7225 95.5 72 95.5C56.2775 95.5 43.5 82.7225 43.5 67C43.5 57.5 48.155 49.0925 55.28 43.915C56.3725 47.7625 58.3675 53.7475 58.3675 53.7475C55.0425 57.1675 53 61.87 53 67C53 77.4975 61.5025 86 72 86C82.4975 86 91 77.4975 91 67C91 61.87 88.9575 57.1675 85.6325 53.7475C85.6325 53.7475 87.58 47.9525 88.72 43.915C95.845 49.0925 100.5 57.5 100.5 67Z" fill="black"/>
<path d="M61.873 135C61.3848 135 61.1406 134.788 61.1406 134.365V133.896C61.1406 133.558 61.2969 133.223 61.6094 132.891L64.5293 129.814C65.4082 128.883 66.2122 128.057 66.9414 127.334C67.6706 126.605 68.0352 125.869 68.0352 125.127C68.0352 124.385 67.8496 123.841 67.4785 123.496C67.1139 123.145 66.6484 122.969 66.082 122.969C65.1836 122.969 64.5586 123.177 64.207 123.594C63.8555 124.01 63.6016 124.456 63.4453 124.932C63.2956 125.394 63.0221 125.56 62.625 125.43L61.6387 125.098C61.3197 124.987 61.2285 124.681 61.3652 124.18C61.6191 123.249 62.1367 122.451 62.918 121.787C63.6992 121.117 64.8581 120.781 66.3945 120.781C67.9961 120.781 69.1582 121.195 69.8809 122.021C70.6035 122.842 70.9648 123.734 70.9648 124.697C70.9648 125.96 70.4375 127.07 69.3828 128.027C68.3281 128.978 67.3711 129.906 66.5117 130.811L64.8516 132.559V132.617C65.2422 132.591 65.5677 132.578 65.8281 132.578H70.3887C70.877 132.578 71.1211 132.79 71.1211 133.213V134.365C71.1211 134.788 70.877 135 70.3887 135H61.873ZM73.2207 134.014C73.0059 133.727 72.9766 133.48 73.1328 133.271L73.8164 132.334C74.0898 131.956 74.4219 131.947 74.8125 132.305C75.0469 132.52 75.4082 132.715 75.8965 132.891C76.3848 133.06 76.873 133.145 77.3613 133.145C78.1035 133.145 78.7285 132.936 79.2363 132.52C79.7507 132.103 80.0078 131.494 80.0078 130.693C80.0078 129.932 79.8451 129.316 79.5195 128.848C79.194 128.379 78.8001 128.145 78.3379 128.145C77.9408 128.145 77.5762 128.177 77.2441 128.242C76.9121 128.301 76.5671 128.486 76.209 128.799C75.9616 129.014 75.6621 129.121 75.3105 129.121H74.2461C73.8229 129.121 73.6113 128.91 73.6113 128.486V121.748C73.6113 121.325 73.8229 121.113 74.2461 121.113H81.2773C81.7005 121.113 81.9121 121.325 81.9121 121.748V122.9C81.9121 123.324 81.7005 123.535 81.2773 123.535H76.3457V125.928C76.3457 126.188 76.3327 126.449 76.3066 126.709H76.3652C76.7103 126.41 77.0944 126.211 77.5176 126.113C77.9408 126.009 78.3932 125.957 78.875 125.957C80.0143 125.957 80.9746 126.348 81.7559 127.129C82.5436 127.904 82.9375 129.105 82.9375 130.732C82.9375 132.23 82.4362 133.372 81.4336 134.16C80.4375 134.941 79.2526 135.332 77.8789 135.332C76.7331 135.332 75.7402 135.208 74.9004 134.961C74.0671 134.707 73.5072 134.391 73.2207 134.014Z" fill="black"/>
</svg>
