<svg width="144" height="144" viewBox="0 0 144 144" fill="none" xmlns="http://www.w3.org/2000/svg">
<path d="M56.0137 135C55.5254 135 55.2812 134.788 55.2812 134.365V133.896C55.2812 133.558 55.4375 133.223 55.75 132.891L58.6699 129.814C59.5488 128.883 60.3529 128.057 61.082 127.334C61.8112 126.605 62.1758 125.869 62.1758 125.127C62.1758 124.385 61.9902 123.841 61.6191 123.496C61.2546 123.145 60.7891 122.969 60.2227 122.969C59.3242 122.969 58.6992 123.177 58.3477 123.594C57.9961 124.01 57.7422 124.456 57.5859 124.932C57.4362 125.394 57.1628 125.56 56.7656 125.43L55.7793 125.098C55.4603 124.987 55.3691 124.681 55.5059 124.18C55.7598 123.249 56.2773 122.451 57.0586 121.787C57.8398 121.117 58.9987 120.781 60.5352 120.781C62.1367 120.781 63.2988 121.195 64.0215 122.021C64.7441 122.842 65.1055 123.734 65.1055 124.697C65.1055 125.96 64.5781 127.07 63.5234 128.027C62.4688 128.978 61.5117 129.906 60.6523 130.811L58.9922 132.559V132.617C59.3828 132.591 59.7083 132.578 59.9688 132.578H64.5293C65.0176 132.578 65.2617 132.79 65.2617 133.213V134.365C65.2617 134.788 65.0176 135 64.5293 135H56.0137ZM67 128.057C67 125.42 67.4102 123.548 68.2305 122.441C69.0508 121.335 70.3073 120.781 72 120.781C73.6927 120.781 74.9492 121.335 75.7695 122.441C76.5898 123.548 77 125.42 77 128.057C77 130.693 76.5898 132.565 75.7695 133.672C74.9492 134.779 73.6927 135.332 72 135.332C70.3073 135.332 69.0508 134.779 68.2305 133.672C67.4102 132.565 67 130.693 67 128.057ZM69.8906 128.057C69.8906 129.261 69.9883 130.42 70.1836 131.533C70.3854 132.646 70.9909 133.203 72 133.203C73.0091 133.203 73.6113 132.646 73.8066 131.533C74.0085 130.42 74.1094 129.261 74.1094 128.057C74.1094 126.852 74.0085 125.693 73.8066 124.58C73.6113 123.467 73.0091 122.91 72 122.91C70.9909 122.91 70.3854 123.467 70.1836 124.58C69.9883 125.693 69.8906 126.852 69.8906 128.057ZM78.7188 128.057C78.7188 125.42 79.1289 123.548 79.9492 122.441C80.7695 121.335 82.026 120.781 83.7188 120.781C85.4115 120.781 86.668 121.335 87.4883 122.441C88.3086 123.548 88.7188 125.42 88.7188 128.057C88.7188 130.693 88.3086 132.565 87.4883 133.672C86.668 134.779 85.4115 135.332 83.7188 135.332C82.026 135.332 80.7695 134.779 79.9492 133.672C79.1289 132.565 78.7188 130.693 78.7188 128.057ZM81.6094 128.057C81.6094 129.261 81.707 130.42 81.9023 131.533C82.1042 132.646 82.7096 133.203 83.7188 133.203C84.7279 133.203 85.3301 132.646 85.5254 131.533C85.7272 130.42 85.8281 129.261 85.8281 128.057C85.8281 126.852 85.7272 125.693 85.5254 124.58C85.3301 123.467 84.7279 122.91 83.7188 122.91C82.7096 122.91 82.1042 123.467 81.9023 124.58C81.707 125.693 81.6094 126.852 81.6094 128.057Z" fill="black"/>
<path d="M105.582 33.4175L98.885 40.115C105.725 47.0025 110 56.5025 110 67C110 87.995 92.995 105 72 105C51.005 105 34 87.995 34 67C34 47.62 48.4875 31.66 67.25 29.3325V38.9275C53.76 41.2075 43.5 52.8925 43.5 67C43.5 82.7225 56.2775 95.5 72 95.5C87.7225 95.5 100.5 82.7225 100.5 67C100.5 59.115 97.3175 51.99 92.14 46.86L85.4425 53.5575C88.8625 57.025 91 61.775 91 67C91 77.4975 82.4975 86 72 86C61.5025 86 53 77.4975 53 67C53 58.165 59.08 50.8025 67.25 48.665V58.83C64.4 60.4925 62.5 63.485 62.5 67C62.5 72.225 66.775 76.5 72 76.5C77.225 76.5 81.5 72.225 81.5 67C81.5 63.485 79.6 60.445 76.75 58.83V19.5H72C45.78 19.5 24.5 40.78 24.5 67C24.5 93.22 45.78 114.5 72 114.5C98.22 114.5 119.5 93.22 119.5 67C119.5 53.89 114.18 42.015 105.582 33.4175Z" fill="black"/>
</svg>
