<svg width="144" height="144" viewBox="0 0 144 144" fill="none" xmlns="http://www.w3.org/2000/svg">
<path d="M61.502 134.014C61.2871 133.727 61.2578 133.48 61.4141 133.271L62.0977 132.334C62.3711 131.956 62.7031 131.947 63.0938 132.305C63.3281 132.52 63.6895 132.715 64.1777 132.891C64.666 133.06 65.1543 133.145 65.6426 133.145C66.3848 133.145 67.0098 132.936 67.5176 132.52C68.0319 132.103 68.2891 131.494 68.2891 130.693C68.2891 129.932 68.1263 129.316 67.8008 128.848C67.4753 128.379 67.0814 128.145 66.6191 128.145C66.222 128.145 65.8574 128.177 65.5254 128.242C65.1934 128.301 64.8483 128.486 64.4902 128.799C64.2428 129.014 63.9434 129.121 63.5918 129.121H62.5273C62.1042 129.121 61.8926 128.91 61.8926 128.486V121.748C61.8926 121.325 62.1042 121.113 62.5273 121.113H69.5586C69.9818 121.113 70.1934 121.325 70.1934 121.748V122.9C70.1934 123.324 69.9818 123.535 69.5586 123.535H64.627V125.928C64.627 126.188 64.6139 126.449 64.5879 126.709H64.6465C64.9915 126.41 65.3757 126.211 65.7988 126.113C66.222 126.009 66.6745 125.957 67.1562 125.957C68.2956 125.957 69.2559 126.348 70.0371 127.129C70.8249 127.904 71.2188 129.105 71.2188 130.732C71.2188 132.23 70.7174 133.372 69.7148 134.16C68.7188 134.941 67.5339 135.332 66.1602 135.332C65.0143 135.332 64.0215 135.208 63.1816 134.961C62.3483 134.707 61.7884 134.391 61.502 134.014ZM72.8594 128.057C72.8594 125.42 73.2695 123.548 74.0898 122.441C74.9102 121.335 76.1667 120.781 77.8594 120.781C79.5521 120.781 80.8086 121.335 81.6289 122.441C82.4492 123.548 82.8594 125.42 82.8594 128.057C82.8594 130.693 82.4492 132.565 81.6289 133.672C80.8086 134.779 79.5521 135.332 77.8594 135.332C76.1667 135.332 74.9102 134.779 74.0898 133.672C73.2695 132.565 72.8594 130.693 72.8594 128.057ZM75.75 128.057C75.75 129.261 75.8477 130.42 76.043 131.533C76.2448 132.646 76.8503 133.203 77.8594 133.203C78.8685 133.203 79.4707 132.646 79.666 131.533C79.8678 130.42 79.9688 129.261 79.9688 128.057C79.9688 126.852 79.8678 125.693 79.666 124.58C79.4707 123.467 78.8685 122.91 77.8594 122.91C76.8503 122.91 76.2448 123.467 76.043 124.58C75.8477 125.693 75.75 126.852 75.75 128.057Z" fill="black"/>
<path d="M105.25 33.75V100.25H38.75V33.75H105.25ZM105.25 24.25H38.75C33.525 24.25 29.25 28.525 29.25 33.75V100.25C29.25 105.475 33.525 109.75 38.75 109.75H105.25C110.475 109.75 114.75 105.475 114.75 100.25V33.75C114.75 28.525 110.475 24.25 105.25 24.25ZM82.165 66.335L67.915 84.7175L57.75 72.415L43.5 90.75H100.5L82.165 66.335Z" fill="black"/>
</svg>
