<svg width="144" height="144" viewBox="0 0 144 144" fill="currentColor" fill="none" xmlns="http://www.w3.org/2000/svg">
<path d="M56.8633 123.887C56.694 123.568 56.8079 123.32 57.2051 123.145C57.5827 122.975 57.9766 122.738 58.3867 122.432C58.7969 122.126 59.1322 121.81 59.3926 121.484C59.6855 121.12 59.9655 120.938 60.2324 120.938H61.7852C62.1758 120.938 62.3711 121.133 62.3711 121.523V134.414C62.3711 134.805 62.1758 135 61.7852 135H60.2227C59.832 135 59.6367 134.805 59.6367 134.414V125.127C59.6367 124.867 59.6497 124.606 59.6758 124.346H59.6367C59.4349 124.6 59.2135 124.818 58.9727 125C58.7318 125.182 58.4876 125.326 58.2402 125.43C57.9342 125.56 57.7031 125.475 57.5469 125.176L56.8633 123.887ZM65.6914 133.955C65.2878 133.649 65.1901 133.34 65.3984 133.027L66.1504 131.895C66.3978 131.523 66.7591 131.504 67.2344 131.836C67.599 132.09 68.0742 132.354 68.6602 132.627C69.2526 132.894 69.8743 133.027 70.5254 133.027C70.9811 133.027 71.4206 132.975 71.8438 132.871C72.2669 132.767 72.5892 132.565 72.8105 132.266C73.0319 131.966 73.1426 131.611 73.1426 131.201C73.1426 130.908 73.0938 130.651 72.9961 130.43C72.8984 130.208 72.7389 130.026 72.5176 129.883C72.2962 129.74 72.0684 129.619 71.834 129.521C71.4238 129.352 70.9062 129.186 70.2812 129.023C69.6628 128.854 69.0508 128.652 68.4453 128.418C67.9049 128.21 67.4102 127.923 66.9609 127.559C66.5117 127.194 66.1634 126.784 65.916 126.328C65.6686 125.872 65.5449 125.264 65.5449 124.502C65.5449 123.597 65.8379 122.822 66.4238 122.178C67.0098 121.533 67.6836 121.12 68.4453 120.938C69.207 120.755 69.9753 120.664 70.75 120.664C71.5182 120.664 72.3092 120.781 73.123 121.016C73.9434 121.25 74.5618 121.543 74.9785 121.895C75.3887 122.24 75.4896 122.552 75.2812 122.832L74.4902 123.896C74.2233 124.261 73.8652 124.29 73.416 123.984C73.1296 123.789 72.7357 123.571 72.2344 123.33C71.7396 123.089 71.222 122.969 70.6816 122.969C70.2975 122.969 69.9427 123.001 69.6172 123.066C69.2982 123.132 69.015 123.288 68.7676 123.535C68.5202 123.783 68.3965 124.089 68.3965 124.453C68.3965 124.805 68.4876 125.091 68.6699 125.312C68.8522 125.527 69.054 125.69 69.2754 125.801C69.4967 125.905 69.7214 125.993 69.9492 126.064C70.6523 126.292 71.2806 126.494 71.834 126.67C72.3874 126.839 72.8984 127.028 73.3672 127.236C74.0182 127.529 74.5163 127.822 74.8613 128.115C75.2064 128.408 75.4896 128.809 75.7109 129.316C75.9388 129.824 76.0527 130.43 76.0527 131.133C76.0527 132.174 75.7207 133.037 75.0566 133.721C74.3926 134.398 73.6536 134.834 72.8398 135.029C72.0326 135.231 71.2448 135.332 70.4766 135.332C69.3438 135.332 68.4225 135.221 67.7129 135C67.0033 134.785 66.3294 134.437 65.6914 133.955ZM77.8008 123.496C77.3125 123.496 77.0684 123.285 77.0684 122.861V121.631C77.0684 121.208 77.3125 120.996 77.8008 120.996H87.8398C88.3281 120.996 88.5723 121.208 88.5723 121.631V122.861C88.5723 123.285 88.3281 123.496 87.8398 123.496H84.2461V134.463C84.2461 134.821 84.0833 135 83.7578 135H81.8828C81.5573 135 81.3945 134.821 81.3945 134.463V123.496H77.8008Z" />
<path d="M105.25 33.75V100.25H38.75V33.75H105.25ZM105.25 24.25H38.75C33.525 24.25 29.25 28.525 29.25 33.75V100.25C29.25 105.475 33.525 109.75 38.75 109.75H105.25C110.475 109.75 114.75 105.475 114.75 100.25V33.75C114.75 28.525 110.475 24.25 105.25 24.25ZM82.165 66.335L67.915 84.7175L57.75 72.415L43.5 90.75H100.5L82.165 66.335Z" />
</svg>
