<svg width="144" height="144" viewBox="0 0 144 144" fill="currentColor" fill="none" xmlns="http://www.w3.org/2000/svg">
<path d="M51.7559 123.887C51.5866 123.568 51.7005 123.32 52.0977 123.145C52.4753 122.975 52.8691 122.738 53.2793 122.432C53.6895 122.126 54.0247 121.81 54.2852 121.484C54.5781 121.12 54.8581 120.938 55.125 120.938H56.6777C57.0684 120.938 57.2637 121.133 57.2637 121.523V134.414C57.2637 134.805 57.0684 135 56.6777 135H55.1152C54.7246 135 54.5293 134.805 54.5293 134.414V125.127C54.5293 124.867 54.5423 124.606 54.5684 124.346H54.5293C54.3275 124.6 54.1061 124.818 53.8652 125C53.6243 125.182 53.3802 125.326 53.1328 125.43C52.8268 125.56 52.5957 125.475 52.4395 125.176L51.7559 123.887ZM59.7148 128.057C59.7148 125.42 60.125 123.548 60.9453 122.441C61.7656 121.335 63.0221 120.781 64.7148 120.781C66.4076 120.781 67.6641 121.335 68.4844 122.441C69.3047 123.548 69.7148 125.42 69.7148 128.057C69.7148 130.693 69.3047 132.565 68.4844 133.672C67.6641 134.779 66.4076 135.332 64.7148 135.332C63.0221 135.332 61.7656 134.779 60.9453 133.672C60.125 132.565 59.7148 130.693 59.7148 128.057ZM62.6055 128.057C62.6055 129.261 62.7031 130.42 62.8984 131.533C63.1003 132.646 63.7057 133.203 64.7148 133.203C65.724 133.203 66.3262 132.646 66.5215 131.533C66.7233 130.42 66.8242 129.261 66.8242 128.057C66.8242 126.852 66.7233 125.693 66.5215 124.58C66.3262 123.467 65.724 122.91 64.7148 122.91C63.7057 122.91 63.1003 123.467 62.8984 124.58C62.7031 125.693 62.6055 126.852 62.6055 128.057ZM71.4336 128.057C71.4336 125.42 71.8438 123.548 72.6641 122.441C73.4844 121.335 74.7409 120.781 76.4336 120.781C78.1263 120.781 79.3828 121.335 80.2031 122.441C81.0234 123.548 81.4336 125.42 81.4336 128.057C81.4336 130.693 81.0234 132.565 80.2031 133.672C79.3828 134.779 78.1263 135.332 76.4336 135.332C74.7409 135.332 73.4844 134.779 72.6641 133.672C71.8438 132.565 71.4336 130.693 71.4336 128.057ZM74.3242 128.057C74.3242 129.261 74.4219 130.42 74.6172 131.533C74.819 132.646 75.4245 133.203 76.4336 133.203C77.4427 133.203 78.0449 132.646 78.2402 131.533C78.4421 130.42 78.543 129.261 78.543 128.057C78.543 126.852 78.4421 125.693 78.2402 124.58C78.0449 123.467 77.4427 122.91 76.4336 122.91C75.4245 122.91 74.819 123.467 74.6172 124.58C74.4219 125.693 74.3242 126.852 74.3242 128.057ZM83.1523 128.057C83.1523 125.42 83.5625 123.548 84.3828 122.441C85.2031 121.335 86.4596 120.781 88.1523 120.781C89.8451 120.781 91.1016 121.335 91.9219 122.441C92.7422 123.548 93.1523 125.42 93.1523 128.057C93.1523 130.693 92.7422 132.565 91.9219 133.672C91.1016 134.779 89.8451 135.332 88.1523 135.332C86.4596 135.332 85.2031 134.779 84.3828 133.672C83.5625 132.565 83.1523 130.693 83.1523 128.057ZM86.043 128.057C86.043 129.261 86.1406 130.42 86.3359 131.533C86.5378 132.646 87.1432 133.203 88.1523 133.203C89.1615 133.203 89.7637 132.646 89.959 131.533C90.1608 130.42 90.2617 129.261 90.2617 128.057C90.2617 126.852 90.1608 125.693 89.959 124.58C89.7637 123.467 89.1615 122.91 88.1523 122.91C87.1432 122.91 86.5378 123.467 86.3359 124.58C86.1406 125.693 86.043 126.852 86.043 128.057Z" />
<path d="M72 111.413L65.1125 105.143C40.65 82.96 24.5 68.33 24.5 50.375C24.5 35.745 35.995 24.25 50.625 24.25C58.89 24.25 66.8225 28.0975 72 34.1775C77.1775 28.0975 85.11 24.25 93.375 24.25C108.005 24.25 119.5 35.745 119.5 50.375C119.5 68.33 103.35 82.96 78.8875 105.19L72 111.413Z" />
</svg>
