<svg width="144" height="144" viewBox="0 0 144 144" fill="currentColor" fill="none" xmlns="http://www.w3.org/2000/svg">
<g clip-path="url(#clip0_512_736)">
<path d="M51.2773 123.887C51.1081 123.568 51.222 123.32 51.6191 123.145C51.9967 122.975 52.3906 122.738 52.8008 122.432C53.2109 122.126 53.5462 121.81 53.8066 121.484C54.0996 121.12 54.3796 120.938 54.6465 120.938H56.1992C56.5898 120.938 56.7852 121.133 56.7852 121.523V134.414C56.7852 134.805 56.5898 135 56.1992 135H54.6367C54.2461 135 54.0508 134.805 54.0508 134.414V125.127C54.0508 124.867 54.0638 124.606 54.0898 124.346H54.0508C53.849 124.6 53.6276 124.818 53.3867 125C53.1458 125.182 52.9017 125.326 52.6543 125.43C52.3483 125.56 52.1172 125.475 51.9609 125.176L51.2773 123.887ZM59.4414 123.496C58.9531 123.496 58.709 123.285 58.709 122.861V121.631C58.709 121.208 58.9531 120.996 59.4414 120.996H69.4805C69.9688 120.996 70.2129 121.208 70.2129 121.631V122.861C70.2129 123.285 69.9688 123.496 69.4805 123.496H65.8867V134.463C65.8867 134.821 65.724 135 65.3984 135H63.5234C63.1979 135 63.0352 134.821 63.0352 134.463V123.496H59.4414ZM71.3848 127.998C71.3848 125.752 71.9642 123.968 73.123 122.646C74.2819 121.325 75.9355 120.664 78.084 120.664C80.2324 120.664 81.8861 121.325 83.0449 122.646C84.2038 123.968 84.7832 125.752 84.7832 127.998C84.7832 130.244 84.2038 132.028 83.0449 133.35C81.8861 134.671 80.2324 135.332 78.084 135.332C75.9355 135.332 74.2819 134.671 73.123 133.35C71.9642 132.028 71.3848 130.244 71.3848 127.998ZM74.4316 127.998C74.4316 129.626 74.7214 130.872 75.3008 131.738C75.8867 132.598 76.8145 133.027 78.084 133.027C79.3535 133.027 80.278 132.598 80.8574 131.738C81.4434 130.872 81.7363 129.626 81.7363 127.998C81.7363 126.37 81.4434 125.127 80.8574 124.268C80.278 123.402 79.3535 122.969 78.084 122.969C76.8145 122.969 75.8867 123.402 75.3008 124.268C74.7214 125.127 74.4316 126.37 74.4316 127.998ZM87.3906 123.887C87.2214 123.568 87.3353 123.32 87.7324 123.145C88.11 122.975 88.5039 122.738 88.9141 122.432C89.3242 122.126 89.6595 121.81 89.9199 121.484C90.2129 121.12 90.4928 120.938 90.7598 120.938H92.3125C92.7031 120.938 92.8984 121.133 92.8984 121.523V134.414C92.8984 134.805 92.7031 135 92.3125 135H90.75C90.3594 135 90.1641 134.805 90.1641 134.414V125.127C90.1641 124.867 90.1771 124.606 90.2031 124.346H90.1641C89.9622 124.6 89.7409 124.818 89.5 125C89.2591 125.182 89.015 125.326 88.7676 125.43C88.4616 125.56 88.2305 125.475 88.0742 125.176L87.3906 123.887Z" />
<path d="M46.8776 97V44.392L36.8936 46.12V37.384L57.2456 34.216V97H46.8776ZM67.5499 65.704V57.448H76.3819V65.704H67.5499ZM67.5499 94.6V86.344H76.3819V94.6H67.5499ZM94.6901 97V44.392L84.7061 46.12V37.384L105.058 34.216V97H94.6901Z" />
</g>
<defs>
<clipPath id="clip0_512_736">
<rect width="144" height="144" fill="white"/>
</clipPath>
</defs>
</svg>
