<svg width="144" height="144" viewBox="0 0 144 144" fill="none" xmlns="http://www.w3.org/2000/svg">
<g clip-path="url(#clip0_512_726)">
<path d="M32.1953 121.777C32.0521 121.257 32.2018 120.996 32.6445 120.996H34.4512C34.7572 120.996 34.9622 121.211 35.0664 121.641L36.9219 129.316C37.0586 129.876 37.1465 130.26 37.1855 130.469C37.2311 130.671 37.2702 130.999 37.3027 131.455H37.3516C37.3841 130.999 37.4167 130.654 37.4492 130.42C37.4818 130.186 37.5762 129.798 37.7324 129.258L39.9102 121.719C40.0469 121.237 40.3203 120.996 40.7305 120.996H42.5273C42.9375 120.996 43.2109 121.237 43.3477 121.719L45.5254 129.258C45.6816 129.798 45.776 130.186 45.8086 130.42C45.8411 130.654 45.8737 130.999 45.9062 131.455H45.9551C45.9876 130.999 46.0234 130.671 46.0625 130.469C46.1081 130.26 46.1992 129.876 46.3359 129.316L48.1914 121.641C48.2956 121.211 48.5007 120.996 48.8066 120.996H50.6133C51.056 120.996 51.2057 121.257 51.0625 121.777L47.7422 134.053C47.5729 134.684 47.2669 135 46.8242 135H45.1152C44.7376 135 44.4609 134.688 44.2852 134.062L41.9414 125.879C41.8112 125.436 41.7363 125.15 41.7168 125.02C41.6973 124.883 41.6712 124.632 41.6387 124.268H41.6191C41.5866 124.632 41.5605 124.883 41.541 125.02C41.5215 125.15 41.4466 125.436 41.3164 125.879L38.9727 134.062C38.7969 134.688 38.5202 135 38.1426 135H36.4336C35.9909 135 35.6849 134.684 35.5156 134.053L32.1953 121.777ZM53.5332 135C53.0775 135 52.8496 134.756 52.8496 134.268V121.729C52.8496 121.24 53.0775 120.996 53.5332 120.996H55.0176C55.4733 120.996 55.7012 121.24 55.7012 121.729V134.268C55.7012 134.756 55.4733 135 55.0176 135H53.5332ZM59.5098 135C59.054 135 58.8262 134.756 58.8262 134.268V121.729C58.8262 121.24 59.054 120.996 59.5098 120.996H60.9551C61.515 120.996 61.9382 121.224 62.2246 121.68L67.2051 129.678H67.2734C67.2409 129.287 67.2246 128.896 67.2246 128.506V121.729C67.2246 121.24 67.4525 120.996 67.9082 120.996H69.3926C69.8483 120.996 70.0762 121.24 70.0762 121.729V134.268C70.0762 134.756 69.8483 135 69.3926 135H68.0449C67.485 135 67.0618 134.772 66.7754 134.316L61.6973 126.172H61.6289C61.6615 126.562 61.6777 126.953 61.6777 127.344V134.268C61.6777 134.756 61.4499 135 60.9941 135H59.5098ZM73.8848 135C73.429 135 73.2012 134.756 73.2012 134.268V121.729C73.2012 121.24 73.429 120.996 73.8848 120.996H75.3301C75.89 120.996 76.3132 121.224 76.5996 121.68L81.5801 129.678H81.6484C81.6159 129.287 81.5996 128.896 81.5996 128.506V121.729C81.5996 121.24 81.8275 120.996 82.2832 120.996H83.7676C84.2233 120.996 84.4512 121.24 84.4512 121.729V134.268C84.4512 134.756 84.2233 135 83.7676 135H82.4199C81.86 135 81.4368 134.772 81.1504 134.316L76.0723 126.172H76.0039C76.0365 126.562 76.0527 126.953 76.0527 127.344V134.268C76.0527 134.756 75.8249 135 75.3691 135H73.8848ZM88.2598 135C87.804 135 87.5762 134.756 87.5762 134.268V121.729C87.5762 121.24 87.804 120.996 88.2598 120.996H96.6387C97.127 120.996 97.3711 121.208 97.3711 121.631V122.783C97.3711 123.206 97.127 123.418 96.6387 123.418H90.4277V126.523H96.1211C96.6094 126.523 96.8535 126.735 96.8535 127.158V128.311C96.8535 128.734 96.6094 128.945 96.1211 128.945H90.4277V132.578H96.9512C97.4395 132.578 97.6836 132.79 97.6836 133.213V134.365C97.6836 134.788 97.4395 135 96.9512 135H88.2598ZM100.76 135C100.304 135 100.076 134.756 100.076 134.268V121.729C100.076 121.24 100.304 120.996 100.76 120.996H105.281C107.293 120.996 108.761 121.309 109.686 121.934C110.61 122.552 111.072 123.561 111.072 124.961C111.072 126.003 110.698 126.833 109.949 127.451C109.201 128.07 108.25 128.48 107.098 128.682V128.701C107.723 128.936 108.195 129.261 108.514 129.678C108.833 130.094 109.093 130.459 109.295 130.771L111.443 134.16C111.801 134.72 111.678 135 111.072 135H109.373C109.015 135 108.722 134.808 108.494 134.424L106.521 131.133C106.307 130.781 105.913 130.397 105.34 129.98C104.773 129.557 104.21 129.346 103.65 129.346H102.928V134.268C102.928 134.756 102.7 135 102.244 135H100.76ZM102.928 126.924H104.676C105.978 126.924 106.902 126.777 107.449 126.484C108.003 126.185 108.279 125.713 108.279 125.068C108.279 124.365 108.012 123.91 107.479 123.701C106.951 123.486 106.173 123.379 105.145 123.379H102.928V126.924Z" fill="black"/>
<path d="M91 62.25V24.25H53V52.75H24.5V109.75H119.5V62.25H91ZM62.5 33.75H81.5V100.25H62.5V33.75ZM34 62.25H53V100.25H34V62.25ZM110 100.25H91V71.75H110V100.25Z" fill="black"/>
<path d="M62.668 9.77344C62.3294 9.13542 62.5573 8.64062 63.3516 8.28906C64.1068 7.95052 64.8945 7.47526 65.7148 6.86328C66.5352 6.2513 67.2057 5.61979 67.7266 4.96875C68.3125 4.23958 68.8724 3.875 69.4062 3.875H72.5117C73.293 3.875 73.6836 4.26562 73.6836 5.04688V30.8281C73.6836 31.6094 73.293 32 72.5117 32H69.3867C68.6055 32 68.2148 31.6094 68.2148 30.8281V12.2539C68.2148 11.7331 68.2409 11.2122 68.293 10.6914H68.2148C67.8112 11.1992 67.3685 11.6354 66.8867 12C66.4049 12.3646 65.9167 12.651 65.4219 12.8594C64.8099 13.1198 64.3477 12.9505 64.0352 12.3516L62.668 9.77344Z" fill="black"/>
</g>
<defs>
<clipPath id="clip0_512_726">
<rect width="144" height="144" fill="white"/>
</clipPath>
</defs>
</svg>
